<svg id="visual" viewBox="0 0 1800 900" width="1800" height="900" xmlns="http://www.w3.org/2000/svg" xmlns:xlink="http://www.w3.org/1999/xlink" version="1.1"><rect x="0" y="0" width="1800" height="900" fill="#1E40AF"></rect><defs><linearGradient id="grad1_0" x1="50%" y1="0%" x2="100%" y2="100%"><stop offset="10%" stop-color="#1e40af" stop-opacity="1"></stop><stop offset="90%" stop-color="#1e40af" stop-opacity="1"></stop></linearGradient></defs><defs><linearGradient id="grad2_0" x1="0%" y1="0%" x2="50%" y2="100%"><stop offset="10%" stop-color="#1e40af" stop-opacity="1"></stop><stop offset="90%" stop-color="#1e40af" stop-opacity="1"></stop></linearGradient></defs><g transform="translate(1800, 0)"><path d="M0 855C-57.7 820.1 -115.4 785.2 -174.9 766.3C-234.4 747.4 -295.6 744.5 -345.4 717.2C-395.1 689.9 -433.4 638.2 -475.1 595.8C-516.8 553.3 -561.9 520.1 -602.8 480.7C-643.7 441.4 -680.4 395.9 -721.7 347.5C-763 299.1 -808.8 247.8 -829.7 189.4C-850.5 130.9 -846.2 65.5 -842 0L0 0Z" fill="#001220"></path></g><g transform="translate(0, 900)"><path d="M0 -765C61.4 -777 122.8 -789 175.6 -769.2C228.3 -749.4 272.4 -697.8 319.8 -664C367.1 -630.2 417.7 -614.1 473.2 -593.4C528.7 -572.7 589 -547.4 634.1 -505.7C679.1 -463.9 708.8 -405.8 719.9 -346.7C731 -287.6 723.5 -227.5 742.9 -169.6C762.3 -111.6 808.7 -55.8 855 0L0 0Z" fill="#001220"></path></g></svg>